<svg width="422" height="171" viewBox="0 0 422 171" fill="none" xmlns="http://www.w3.org/2000/svg">
  <line y1="-1.5" x2="234.464" y2="-1.5" transform="matrix(0.693897 -0.720075 0.709483 0.704722 -1.99219 170.5)" stroke="#3EB8FF" stroke-width="3"/>
  <line y1="-1.5" x2="234.464" y2="-1.5" transform="matrix(0.693897 -0.720075 0.709483 0.704722 18.1641 170.5)" stroke="#3EB8FF" stroke-width="3"/>
  <line y1="-1.5" x2="234.464" y2="-1.5" transform="matrix(0.693897 -0.720075 0.709483 0.704722 38.3203 170.5)" stroke="#3EB8FF" stroke-width="3"/>
  <line y1="-1.5" x2="234.464" y2="-1.5" transform="matrix(0.693897 -0.720075 0.709483 0.704722 58.4805 170.5)" stroke="#3EB8FF" stroke-width="3"/>
  <line y1="-1.5" x2="234.464" y2="-1.5" transform="matrix(0.693897 -0.720075 0.709483 0.704722 77.9141 170.5)" stroke="#3EB8FF" stroke-width="3"/>
  <line y1="-1.5" x2="234.464" y2="-1.5" transform="matrix(0.693897 -0.720075 0.709483 0.704722 98.0742 170.5)" stroke="#3EB8FF" stroke-width="3"/>
  <line y1="-1.5" x2="234.464" y2="-1.5" transform="matrix(0.693897 -0.720075 0.709483 0.704722 118.23 170.499)" stroke="#3EB8FF" stroke-width="3"/>
  <line y1="-1.5" x2="234.464" y2="-1.5" transform="matrix(0.693897 -0.720075 0.709483 0.704722 138.008 170.501)" stroke="#CD63FF" stroke-width="3"/>
  <line y1="-1.5" x2="234.464" y2="-1.5" transform="matrix(0.693897 -0.720075 0.709483 0.704722 158.164 170.501)" stroke="#CD63FF" stroke-width="3"/>
  <line y1="-1.5" x2="234.464" y2="-1.5" transform="matrix(0.693897 -0.720075 0.709483 0.704722 178.324 170.501)" stroke="#CD63FF" stroke-width="3"/>
  <line y1="-1.5" x2="234.464" y2="-1.5" transform="matrix(0.693897 -0.720075 0.709483 0.704722 198.48 170.501)" stroke="#CD63FF" stroke-width="3"/>
  <line y1="-1.5" x2="234.464" y2="-1.5" transform="matrix(0.693897 -0.720075 0.709483 0.704722 217.914 170.501)" stroke="#CD63FF" stroke-width="3"/>
  <line y1="-1.5" x2="234.464" y2="-1.5" transform="matrix(0.693897 -0.720075 0.709483 0.704722 238.074 170.501)" stroke="#CD63FF" stroke-width="3"/>
  <line y1="-1.5" x2="234.464" y2="-1.5" transform="matrix(0.693897 -0.720075 0.709483 0.704722 258.23 170.501)" stroke="#CD63FF" stroke-width="3"/>
  <line y1="-1.5" x2="234.464" y2="-1.5" transform="matrix(0.693897 -0.720075 0.709483 0.704722 -143 168.832)" stroke="#20F5D9" stroke-width="3"/>
  <line y1="-1.5" x2="234.464" y2="-1.5" transform="matrix(0.693897 -0.720075 0.709483 0.704722 -122.844 168.832)" stroke="#20F5D9" stroke-width="3"/>
  <line y1="-1.5" x2="234.464" y2="-1.5" transform="matrix(0.693897 -0.720075 0.709483 0.704722 -102.688 168.832)" stroke="#20F5D9" stroke-width="3"/>
  <line y1="-1.5" x2="234.464" y2="-1.5" transform="matrix(0.693897 -0.720075 0.709483 0.704722 -82.5273 168.831)" stroke="#20F5D9" stroke-width="3"/>
  <line y1="-1.5" x2="234.464" y2="-1.5" transform="matrix(0.693897 -0.720075 0.709483 0.704722 -63.0938 168.832)" stroke="#20F5D9" stroke-width="3"/>
  <line y1="-1.5" x2="234.464" y2="-1.5" transform="matrix(0.693897 -0.720075 0.709483 0.704722 -42.9336 168.831)" stroke="#20F5D9" stroke-width="3"/>
  <line y1="-1.5" x2="234.464" y2="-1.5" transform="matrix(0.693897 -0.720075 0.709483 0.704722 -22.7773 168.831)" stroke="#20F5D9" stroke-width="3"/>
  <line y1="-1.5" x2="234.464" y2="-1.5" transform="matrix(0.693897 -0.720075 0.709483 0.704722 420.008 170.5)" stroke="#3EB8FF" stroke-width="3"/>
  <line y1="-1.5" x2="234.464" y2="-1.5" transform="matrix(0.693897 -0.720075 0.709483 0.704722 279 168.832)" stroke="#20F5D9" stroke-width="3"/>
  <line y1="-1.5" x2="234.464" y2="-1.5" transform="matrix(0.693897 -0.720075 0.709483 0.704722 299.156 168.832)" stroke="#20F5D9" stroke-width="3"/>
  <line y1="-1.5" x2="234.464" y2="-1.5" transform="matrix(0.693897 -0.720075 0.709483 0.704722 319.312 168.832)" stroke="#20F5D9" stroke-width="3"/>
  <line y1="-1.5" x2="234.464" y2="-1.5" transform="matrix(0.693897 -0.720075 0.709483 0.704722 339.473 168.831)" stroke="#20F5D9" stroke-width="3"/>
  <line y1="-1.5" x2="234.464" y2="-1.5" transform="matrix(0.693897 -0.720075 0.709483 0.704722 358.906 168.832)" stroke="#20F5D9" stroke-width="3"/>
  <line y1="-1.5" x2="234.464" y2="-1.5" transform="matrix(0.693897 -0.720075 0.709483 0.704722 379.066 168.831)" stroke="#20F5D9" stroke-width="3"/>
  <line y1="-1.5" x2="234.464" y2="-1.5" transform="matrix(0.693897 -0.720075 0.709483 0.704722 399.223 168.831)" stroke="#20F5D9" stroke-width="3"/>
</svg>
