<svg width="424" height="172" viewBox="0 0 424 172" fill="none" xmlns="http://www.w3.org/2000/svg">
  <line y1="-1.5" x2="234.464" y2="-1.5" transform="matrix(-0.693897 -0.720075 -0.709483 0.704722 279.912 172.5)" stroke="#FF52D9" stroke-width="3"/>
  <line y1="-1.5" x2="234.464" y2="-1.5" transform="matrix(-0.693897 -0.720075 -0.709483 0.704722 259.756 172.5)" stroke="#FF52D9" stroke-width="3"/>
  <line y1="-1.5" x2="234.464" y2="-1.5" transform="matrix(-0.693897 -0.720075 -0.709483 0.704722 239.599 172.5)" stroke="#FF52D9" stroke-width="3"/>
  <line y1="-1.5" x2="234.464" y2="-1.5" transform="matrix(-0.693897 -0.720075 -0.709483 0.704722 219.443 172.499)" stroke="#FF52D9" stroke-width="3"/>
  <line y1="-1.5" x2="234.464" y2="-1.5" transform="matrix(-0.693897 -0.720075 -0.709483 0.704722 200.005 172.5)" stroke="#FF52D9" stroke-width="3"/>
  <line y1="-1.5" x2="234.464" y2="-1.5" transform="matrix(-0.693897 -0.720075 -0.709483 0.704722 179.85 172.499)" stroke="#FF52D9" stroke-width="3"/>
  <line y1="-1.5" x2="234.464" y2="-1.5" transform="matrix(-0.693897 -0.720075 -0.709483 0.704722 159.693 172.499)" stroke="#FF52D9" stroke-width="3"/>
  <line y1="-1.5" x2="234.464" y2="-1.5" transform="matrix(-0.693897 -0.720075 -0.709483 0.704722 139.912 172.5)" stroke="#FFD600" stroke-width="3"/>
  <line y1="-1.5" x2="234.464" y2="-1.5" transform="matrix(-0.693897 -0.720075 -0.709483 0.704722 119.756 172.5)" stroke="#FFD600" stroke-width="3"/>
  <line y1="-1.5" x2="234.464" y2="-1.5" transform="matrix(-0.693897 -0.720075 -0.709483 0.704722 99.5996 172.5)" stroke="#FFD600" stroke-width="3"/>
  <line y1="-1.5" x2="234.464" y2="-1.5" transform="matrix(-0.693897 -0.720075 -0.709483 0.704722 79.4434 172.5)" stroke="#FFD600" stroke-width="3"/>
  <line y1="-1.5" x2="234.464" y2="-1.5" transform="matrix(-0.693897 -0.720075 -0.709483 0.704722 60.006 172.5)" stroke="#FFD600" stroke-width="3"/>
  <line y1="-1.5" x2="234.464" y2="-1.5" transform="matrix(-0.693897 -0.720075 -0.709483 0.704722 39.8496 172.5)" stroke="#FFD600" stroke-width="3"/>
  <line y1="-1.5" x2="234.464" y2="-1.5" transform="matrix(-0.693897 -0.720075 -0.709483 0.704722 19.6934 172.5)" stroke="#FFD600" stroke-width="3"/>
  <line y1="-1.5" x2="234.464" y2="-1.5" transform="matrix(-0.693897 -0.720075 -0.709483 0.704722 420.92 170.832)" stroke="#CB62FF" stroke-width="3"/>
  <line y1="-1.5" x2="234.464" y2="-1.5" transform="matrix(-0.693897 -0.720075 -0.709483 0.704722 400.764 170.832)" stroke="#CB62FF" stroke-width="3"/>
  <line y1="-1.5" x2="234.464" y2="-1.5" transform="matrix(-0.693897 -0.720075 -0.709483 0.704722 380.607 170.832)" stroke="#CB62FF" stroke-width="3"/>
  <line y1="-1.5" x2="234.464" y2="-1.5" transform="matrix(-0.693897 -0.720075 -0.709483 0.704722 360.447 170.831)" stroke="#CB62FF" stroke-width="3"/>
  <line y1="-1.5" x2="234.464" y2="-1.5" transform="matrix(-0.693897 -0.720075 -0.709483 0.704722 341.014 170.832)" stroke="#CB62FF" stroke-width="3"/>
  <line y1="-1.5" x2="234.464" y2="-1.5" transform="matrix(-0.693897 -0.720075 -0.709483 0.704722 320.854 170.831)" stroke="#CB62FF" stroke-width="3"/>
  <line y1="-1.5" x2="234.464" y2="-1.5" transform="matrix(-0.693897 -0.720075 -0.709483 0.704722 300.697 170.831)" stroke="#CB62FF" stroke-width="3"/>
  <line y1="-1.5" x2="234.464" y2="-1.5" transform="matrix(-0.693897 -0.720075 -0.709483 0.704722 279.912 172.5)" stroke="#FF52D9" stroke-width="3"/>
  <line y1="-1.5" x2="234.464" y2="-1.5" transform="matrix(-0.693897 -0.720075 -0.709483 0.704722 259.756 172.5)" stroke="#FF52D9" stroke-width="3"/>
  <line y1="-1.5" x2="234.464" y2="-1.5" transform="matrix(-0.693897 -0.720075 -0.709483 0.704722 239.599 172.5)" stroke="#FF52D9" stroke-width="3"/>
  <line y1="-1.5" x2="234.464" y2="-1.5" transform="matrix(-0.693897 -0.720075 -0.709483 0.704722 219.443 172.499)" stroke="#FF52D9" stroke-width="3"/>
  <line y1="-1.5" x2="234.464" y2="-1.5" transform="matrix(-0.693897 -0.720075 -0.709483 0.704722 200.005 172.5)" stroke="#FF52D9" stroke-width="3"/>
  <line y1="-1.5" x2="234.464" y2="-1.5" transform="matrix(-0.693897 -0.720075 -0.709483 0.704722 179.85 172.499)" stroke="#FF52D9" stroke-width="3"/>
  <line y1="-1.5" x2="234.464" y2="-1.5" transform="matrix(-0.693897 -0.720075 -0.709483 0.704722 159.693 172.499)" stroke="#FF52D9" stroke-width="3"/>
  <line y1="-1.5" x2="234.464" y2="-1.5" transform="matrix(-0.693897 -0.720075 -0.709483 0.704722 139.912 172.5)" stroke="#FFD600" stroke-width="3"/>
  <line y1="-1.5" x2="234.464" y2="-1.5" transform="matrix(-0.693897 -0.720075 -0.709483 0.704722 119.756 172.5)" stroke="#FFD600" stroke-width="3"/>
  <line y1="-1.5" x2="234.464" y2="-1.5" transform="matrix(-0.693897 -0.720075 -0.709483 0.704722 99.5996 172.5)" stroke="#FFD600" stroke-width="3"/>
  <line y1="-1.5" x2="234.464" y2="-1.5" transform="matrix(-0.693897 -0.720075 -0.709483 0.704722 79.4434 172.5)" stroke="#FFD600" stroke-width="3"/>
  <line y1="-1.5" x2="234.464" y2="-1.5" transform="matrix(-0.693897 -0.720075 -0.709483 0.704722 60.006 172.5)" stroke="#FFD600" stroke-width="3"/>
  <line y1="-1.5" x2="234.464" y2="-1.5" transform="matrix(-0.693897 -0.720075 -0.709483 0.704722 39.8496 172.5)" stroke="#FFD600" stroke-width="3"/>
  <line y1="-1.5" x2="234.464" y2="-1.5" transform="matrix(-0.693897 -0.720075 -0.709483 0.704722 19.6934 172.5)" stroke="#FFD600" stroke-width="3"/>
  <line y1="-1.5" x2="234.464" y2="-1.5" transform="matrix(-0.693897 -0.720075 -0.709483 0.704722 420.92 170.832)" stroke="#CB62FF" stroke-width="3"/>
  <line y1="-1.5" x2="234.464" y2="-1.5" transform="matrix(-0.693897 -0.720075 -0.709483 0.704722 400.764 170.832)" stroke="#CB62FF" stroke-width="3"/>
  <line y1="-1.5" x2="234.464" y2="-1.5" transform="matrix(-0.693897 -0.720075 -0.709483 0.704722 380.607 170.832)" stroke="#CB62FF" stroke-width="3"/>
  <line y1="-1.5" x2="234.464" y2="-1.5" transform="matrix(-0.693897 -0.720075 -0.709483 0.704722 360.447 170.831)" stroke="#CB62FF" stroke-width="3"/>
  <line y1="-1.5" x2="234.464" y2="-1.5" transform="matrix(-0.693897 -0.720075 -0.709483 0.704722 341.014 170.832)" stroke="#CB62FF" stroke-width="3"/>
  <line y1="-1.5" x2="234.464" y2="-1.5" transform="matrix(-0.693897 -0.720075 -0.709483 0.704722 320.854 170.831)" stroke="#CB62FF" stroke-width="3"/>
  <line y1="-1.5" x2="234.464" y2="-1.5" transform="matrix(-0.693897 -0.720075 -0.709483 0.704722 300.697 170.831)" stroke="#CB62FF" stroke-width="3"/>
  <line y1="-1.5" x2="234.464" y2="-1.5" transform="matrix(-0.693897 -0.720075 -0.709483 0.704722 581.694 170.499)" stroke="#FF52D9" stroke-width="3"/>
  <line y1="-1.5" x2="234.464" y2="-1.5" transform="matrix(-0.693897 -0.720075 -0.709483 0.704722 561.912 170.5)" stroke="#FFD600" stroke-width="3"/>
  <line y1="-1.5" x2="234.464" y2="-1.5" transform="matrix(-0.693897 -0.720075 -0.709483 0.704722 541.756 170.5)" stroke="#FFD600" stroke-width="3"/>
  <line y1="-1.5" x2="234.464" y2="-1.5" transform="matrix(-0.693897 -0.720075 -0.709483 0.704722 521.6 170.5)" stroke="#FFD600" stroke-width="3"/>
  <line y1="-1.5" x2="234.464" y2="-1.5" transform="matrix(-0.693897 -0.720075 -0.709483 0.704722 501.444 170.5)" stroke="#FFD600" stroke-width="3"/>
  <line y1="-1.5" x2="234.464" y2="-1.5" transform="matrix(-0.693897 -0.720075 -0.709483 0.704722 482.006 170.5)" stroke="#FFD600" stroke-width="3"/>
  <line y1="-1.5" x2="234.464" y2="-1.5" transform="matrix(-0.693897 -0.720075 -0.709483 0.704722 461.85 170.5)" stroke="#FFD600" stroke-width="3"/>
  <line y1="-1.5" x2="234.464" y2="-1.5" transform="matrix(-0.693897 -0.720075 -0.709483 0.704722 441.694 170.5)" stroke="#FFD600" stroke-width="3"/>
  <line y1="-1.5" x2="234.464" y2="-1.5" transform="matrix(-0.693897 -0.720075 -0.709483 0.704722 -1.07983 172.832)" stroke="#CB62FF" stroke-width="3"/>
</svg>
