<svg id="Layer_1" data-name="Layer 1" xmlns="http://www.w3.org/2000/svg" viewBox="0 0 400 400"><defs><style>.cls-1{fill:#ffb618;}.cls-2{fill:#009042;}</style></defs><title>nosk</title><path class="cls-1" d="M70.78,151s0-4.26,4.6-2.63,10.48,5.87,16.52-1c7.21-8.18,8.78-9.16,9.48-13.12.56-3.22,2.18-9-4.57-16.68-5.36-6.11-9.85-6-11.73-5.08-.76.38-1.07,1.12-1,1.42.43,1.16-1.69,11.77-6.88,13.4s-5.81-4.9-4.62-11c1.22-6.29,11.08-7.18,14-6.73,5.1.78,15,5.66,16.83,11.5s6.21,11-5.8,29.81-5.31,28.32-5.31,30.89-3.56,8.06-9.07-4.1S70.58,153.23,70.78,151Z"/><path d="M73.67,106.57c-3.8,1.4-10.6,9.6-11.5,13.9a17,17,0,0,1-3.2,5.6c-3.9,4.4-8.3,10.5-8.3,11.6,0,.5,1.8-.7,4-2.7,5.5-4.9,8.4-5.5,11.8-2.3,8.6,8,19.8,8.3,25.4.6,5.5-7.4,2.7-18.8-4.7-20.1-1.8-.3-2,.2-1.7,3.9.4,5.1-.9,7.8-5.1,10.3s-6.9,2.5-9.5-.3c-3.3-3.5-3-10,.6-13.7,9.8-9.8,30.3-4.2,37.9,10.4,2.4,4.5,2.1,14-.5,19.6-2.8,5.9-2.9,12.7-.1,15.6,3.8,4.1,12.5,30.7,15.3,46.9,2.1,12,2.1,23.4.1,24.1-4.8,1.9-11.7-3.8-20.1-16.4-10.3-15.2-19.9-27.7-24.1-31-5.7-4.5-6.1-4-1.2,1.7a153.6,153.6,0,0,1,11.3,16c3.9,6,12.9,20.1,20,31.2,11.6,18.1,13,20.7,13.4,25.4.5,6.4-1.8,18.2-6.1,31.6-1.8,5.4-3,9.9-2.7,9.9s2.2-2.5,4.2-5.6c7.5-11.3,12.7-29.4,14.8-51.1.5-6,1.4-15.5,2-21.3,1.1-12.4,2.4-17.4,5.1-20.1,1.5-1.5,2.3-1.7,3.7-.8,1.7,1.1,6.6,6.9,8.2,9.9,2,3.3,2.2-.5.6-8.7-3-15-19.1-45.6-33.4-63.2a66.1,66.1,0,0,1-7.1-11.5,35.34,35.34,0,0,0-29.6-20.2A33.29,33.29,0,0,0,73.67,106.57Z"/><path d="M75,118c-.8,2.1,1.3,4.2,2.8,2.7,1.3-1.3.5-4.3-1.1-4.3C76.07,116.37,75.37,117.07,75,118Z"/><path d="M52.87,172.07c-5,9.7-8.7,33-7.7,47.8,1.2,18.5,4.7,31.2,11.3,41,4.5,6.6,18.4,23.6,18.9,23.1.2-.2-2.7-5.7-6.5-12.3-8.6-15-11-20.7-13.3-30.8-2.4-10.3-2.4-21,0-33.2,1.9-9.4,5.7-23.6,8-29.7,1.7-4.4.5-4.4-1.4,0-2,5-6.2,10.4-8,10.4-3,0-3-8.4.1-15.9C56.27,167.67,55.17,167.37,52.87,172.07Z"/><path class="cls-2" d="M185.17,198.17a69.53,69.53,0,0,0-20.4,6.2c-15.1,7.7-22.2,21.6-19.2,37.7,2.1,11.4,9.4,20.5,22.1,27.2l6,3.2.9-2.3c.5-1.3,2.7-6.2,4.9-11l4-8.7-2.4-1.6a21.13,21.13,0,0,1-5-5.5c-5.5-8.3-.5-17.5,10.8-20,8-1.8,14.7.5,18.8,6.5,4.7,6.8,3.8,12.8-2.5,17.5-1.9,1.4-3.5,2.8-3.5,3.1,0,.9,7.3,18,8.7,20.4,1.2,2,1.4,1.9,7.8-1.5,19.1-10,26.6-28.2,19-46.3-3.3-8.1-16.2-18.8-26.6-22.2C203.37,199.07,190.37,197.67,185.17,198.17Z"/><path d="M293.07,207.37c-4.9,2-5.6,12.8-2.4,38.9,1.1,9.1,2.7,18,3.4,19.7a13.76,13.76,0,0,0,5,5.2c4.1,2.4,4.4,2,1.6-2.3-2.6-3.9-2.7-11-.2-12,3.3-1.4,23.8-1.7,37.2-.6,22.6,2,34.6,2.5,33.5,1.3-.9-1-26.4-5-52.5-8.3-10.4-1.3-14-2.3-14-3.9,0-.5,2.2-3.4,4.9-6.2,20-21.7,23.1-25.4,23.1-27.5,0-3.6-3.7-2.9-7.3,1.4-12.3,14.4-23.6,23.8-25.9,21.5-.8-.8-.8-4.1,0-11.8,1.1-11.1.6-14.7-2.3-15.8a6,6,0,0,0-1.8-.5A17.82,17.82,0,0,0,293.07,207.37Z"/><path d="M260.67,210.47c-6.3,1.2-17,6.9-19.4,10.2a12.1,12.1,0,0,0,0,13.4c2.7,3.8,13.5,9.2,27.2,13.8,13.5,4.5,15.1,6.2,9.5,9.9-4.3,2.9-13.6,5.2-24.1,6.2-4,.4-7.5,1.1-7.8,1.6-.8,1.3,6,3.8,10.4,3.8,9.1,0,31-7.6,31.4-10.9.8-8.1-6.8-13.9-22.7-17.1-12-2.4-20.5-8.1-20.5-13.7,0-6.3,5.5-9.6,18.6-11.4,9-1.2,17-4.2,15.9-5.9C278.47,209.17,266.87,209.27,260.67,210.47Z"/><path d="M71.27,298c-1.4,1.5-2.6,3-2.6,3.5a9.23,9.23,0,0,1-.6,2.2c-.6,1.6,6.1,6.1,7.7,5.1.6-.3,2.1.2,3.6,1.1,3.3,2.2,4.3.9,4.3-5.6C83.67,296.17,76.77,292.57,71.27,298Z"/><path d="M102.17,302.87c-5.3,5.6-6.1,15.4-1.2,14.1,1.5-.4,2.7.1,3.9,1.6,1.5,2.1,1.8,2.1,3.5.6,1.3-1.2,2.3-1.4,3.6-.6,2.4,1.3,2.9.7,3.8-4.9.9-6.2-.4-9-5.9-12l-4.3-2.4Z"/></svg>